<?xml version="1.0"?>
<svg xmlns="http://www.w3.org/2000/svg" id="Icons" viewBox="0 0 74 74" width="512" height="512"><path d="M51.46,72a.993.993,0,0,1-.338-.059L36.99,66.862,22.857,71.941A1,1,0,0,1,21.52,71V63.81a1,1,0,0,1,.389-.792l6.952-5.37V46.173L7.4,48.862a.991.991,0,0,1-.786-.242,1,1,0,0,1-.338-.75v-8.4a1,1,0,0,1,.485-.857L28.86,25.364V10.13a8.13,8.13,0,0,1,16.26,0V25.364L67.233,38.612a1,1,0,0,1,.486.858v8.4a1,1,0,0,1-.338.75.986.986,0,0,1-.786.243L45.12,46.173V57.649l6.951,5.37a1,1,0,0,1,.389.792V71a1,1,0,0,1-1,1ZM23.52,64.3v5.277l13.133-4.719a.992.992,0,0,1,.676,0L50.46,69.578V64.3l-6.951-5.37a1,1,0,0,1-.389-.792V45.04a1,1,0,0,1,1.124-.992L65.72,46.737v-6.7L43.606,26.788a1,1,0,0,1-.486-.858V10.13a6.13,6.13,0,0,0-12.26,0v15.8a1,1,0,0,1-.485.857L8.28,40.036v6.7l21.456-2.689a1,1,0,0,1,1.124.992v13.1a1,1,0,0,1-.389.792Z"/></svg>
