<svg width="0" height="0" class="hidden">
  <symbol xmlns="http://www.w3.org/2000/svg" viewBox="0 0 74 74" id="car">
    <path d="M12.894 31.583a.991.991 0 01-.52-.146l-2.4-1.464a1 1 0 111.041-1.707l2.4 1.464a1 1 0 01-.521 1.854z"></path>
    <path d="M10.494 30.119H4.529A2.532 2.532 0 012 27.589v-1.636a2.531 2.531 0 012.529-2.529h4.436a2.531 2.531 0 012.529 2.529v3.166a1 1 0 01-1 1zm-5.965-4.695a.53.53 0 00-.529.529v1.637a.53.53 0 00.529.529h4.965v-2.166a.53.53 0 00-.529-.529z"></path>
    <path d="M64.507 50.614H9.493a4.313 4.313 0 01-4.308-4.308V40.22a11.294 11.294 0 0111.282-11.282h41.066A11.294 11.294 0 0168.814 40.22v6.086a4.313 4.313 0 01-4.307 4.308zm-48.04-19.676a9.292 9.292 0 00-9.281 9.282v6.086a2.31 2.31 0 002.308 2.308h55.013a2.31 2.31 0 002.308-2.308V40.22a9.292 9.292 0 00-9.281-9.282z"></path>
    <path d="M12.894 31.583a1 1 0 01-.883-1.468l4.913-9.272a7.359 7.359 0 016.517-3.922h27.134a7.359 7.359 0 016.525 3.93l4.892 9.265a1 1 0 11-1.769.934l-4.892-9.265a5.363 5.363 0 00-4.753-2.865H23.441a5.361 5.361 0 00-4.749 2.858l-4.913 9.272a1 1 0 01-.885.533z"></path>
    <path d="M61.106 31.583a1 1 0 01-.521-1.854l2.4-1.464a1 1 0 111.041 1.707l-2.4 1.464a.991.991 0 01-.52.147z"></path>
    <path d="M69.471 30.119h-5.965a1 1 0 01-1-1v-3.166a2.531 2.531 0 012.529-2.529h4.437A2.531 2.531 0 0172 25.953v1.637a2.532 2.532 0 01-2.529 2.529zm-4.965-2h4.965a.53.53 0 00.529-.53v-1.636a.53.53 0 00-.529-.529h-4.436a.53.53 0 00-.529.529zm-7.56 17.029a4.429 4.429 0 114.429-4.429 4.434 4.434 0 01-4.429 4.429zm0-6.858a2.429 2.429 0 102.429 2.429 2.432 2.432 0 00-2.429-2.429zm-39.892 6.858a4.429 4.429 0 114.429-4.429 4.434 4.434 0 01-4.429 4.429zm0-6.858a2.429 2.429 0 102.429 2.429 2.432 2.432 0 00-2.429-2.429zm30.571 5.151h-21.25a1 1 0 01-1-1A5.651 5.651 0 0131.02 36.8h11.96a5.651 5.651 0 015.645 5.645 1 1 0 01-1 .996zm-20.11-2h18.97a3.651 3.651 0 00-3.5-2.645H31.02a3.651 3.651 0 00-3.505 2.645zM60.913 57.08h-6.088a2.352 2.352 0 01-2.349-2.35v-5.116a1 1 0 011-1h8.786a1 1 0 011 1v5.116a2.352 2.352 0 01-2.349 2.35zm-6.437-6.465v4.115a.35.35 0 00.349.35h6.087a.35.35 0 00.35-.35v-4.116zM19.175 57.08h-6.088a2.352 2.352 0 01-2.35-2.35v-5.116a1 1 0 011-1h8.786a1 1 0 011 1v5.116a2.352 2.352 0 01-2.348 2.35zm-6.437-6.465v4.115a.35.35 0 00.35.35h6.087a.35.35 0 00.349-.35v-4.116z"></path>
  </symbol>
  <symbol xmlns="http://www.w3.org/2000/svg" viewBox="0 0 74 74" id="plastered-foot">
    <path d="M57.392 60.762h-43.3a2.182 2.182 0 01-2.18-2.18V42.034a2.183 2.183 0 012.143-2.179c5.06-.062 21.913-1.473 26.345-17.022a1.035 1.035 0 01.975-.726l27.668.367a1 1 0 01.953.742c.225.842 5.423 20.743-1.78 31.317a14.306 14.306 0 01-10.707 6.223.987.987 0 01-.117.006zM42.1 24.116c-5.119 16.19-22.694 17.674-28.024 17.739a.171.171 0 00-.167.179v16.548a.18.18 0 00.18.18h43.245a12.372 12.372 0 009.226-5.356c5.957-8.744 2.541-25.275 1.68-28.943z"></path>
    <path d="M31.9 60.762a1 1 0 01-.291-.043c-12.05-3.661-16.8-18.977-17-19.627a1 1 0 011.915-.579c.045.149 4.646 14.944 15.664 18.292a1 1 0 01-.29 1.958zm25.493 0a1.01 1.01 0 01-.214-.023c-16.484-3.6-28.072-22.131-28.557-22.918a1 1 0 011.7-1.05c.115.186 11.636 18.6 27.282 22.014a1 1 0 01-.212 1.977zM69.658 50.12a1 1 0 01-.424-.095C47.308 39.73 40.7 24.145 40.433 23.486a1 1 0 011.85-.761c.063.154 6.623 15.545 27.8 25.489a1 1 0 01-.425 1.905z"></path>
    <path d="M53.6 39.7a1 1 0 01-.44-1.9c8.84-4.323 14.939-14.726 15-14.831a1 1 0 011.73 1c-.26.449-6.47 11.038-15.852 15.625a1 1 0 01-.438.106z"></path>
    <path d="M67.44 24.452a1 1 0 01-1-1v-9.214a1 1 0 012 0v9.214a1 1 0 01-1 1zm-24.829 0a1 1 0 01-1-1v-9.214a1 1 0 012 0v9.214a1 1 0 01-1 1zM12.909 57.214h-1.263A9.657 9.657 0 012 47.568a4.848 4.848 0 014.843-4.843h6.066a1 1 0 110 2H6.843A2.846 2.846 0 004 47.568a7.655 7.655 0 007.646 7.646h1.262a1 1 0 110 2z"></path>
  </symbol>
   <symbol xmlns="http://www.w3.org/2000/svg" viewBox="0 0 74 74" id="scale">
    <path d="M50.184 66.252H23.816a1 1 0 01-1-1v-3.36a4.171 4.171 0 014.167-4.167h20.034a4.171 4.171 0 014.167 4.167v3.361a1 1 0 01-1 .999zm-25.367-2h24.367v-2.36a2.169 2.169 0 00-2.167-2.167H26.983a2.169 2.169 0 00-2.167 2.167z"></path>
    <path d="M39.44 59.73h-4.87a1 1 0 01-1-1V18.02a1 1 0 012 0v39.71h2.87V18.01a1 1 0 012 0v40.72a1 1 0 01-1 1z"></path>
    <path d="M37 19.657a5.955 5.955 0 115.955-5.957A5.962 5.962 0 0137 19.657zm0-9.909a3.955 3.955 0 103.955 3.952A3.959 3.959 0 0037 9.748z"></path>
    <path d="M55.772 14.707H41.956a1 1 0 010-2h13.816a1 1 0 010 2zm-23.731 0H18.1a1 1 0 010-2h13.941a1 1 0 010 2z"></path>
    <path d="M57.984 16.917a3.21 3.21 0 113.21-3.21 3.214 3.214 0 01-3.21 3.21zm0-4.421a1.21 1.21 0 101.21 1.21 1.212 1.212 0 00-1.21-1.206z"></path>
    <path d="M69.676 35.11H46.293a1 1 0 01-.841-1.541l11.691-18.193a1.038 1.038 0 011.683 0l11.692 18.193a1 1 0 01-.841 1.541zm-21.552-2h19.72l-9.86-15.343z"></path>
    <path d="M57.984 48.165a14.031 14.031 0 01-14.015-14.016 1.035 1.035 0 011-1.04H71a1 1 0 011 1 14.04 14.04 0 01-14.016 14.056zM46.007 35.11a12.016 12.016 0 0023.955 0zM16.016 16.917a3.21 3.21 0 113.21-3.21 3.214 3.214 0 01-3.21 3.21zm0-4.421a1.21 1.21 0 101.21 1.21 1.212 1.212 0 00-1.21-1.206z"></path>
    <path d="M27.707 35.11H4.324a1 1 0 01-.841-1.541l11.691-18.193a1.038 1.038 0 011.683 0l11.691 18.193a1 1 0 01-.841 1.541zm-21.552-2h19.72l-9.86-15.343z"></path>
    <path d="M16.016 48.165A14.031 14.031 0 012 34.149a1.035 1.035 0 011-1.04h26.031a1 1 0 011 1v.04a14.031 14.031 0 01-14.015 14.016zM4.041 35.11a12.014 12.014 0 0023.952 0z"></path>
  </symbol>
  <symbol xmlns="http://www.w3.org/2000/svg" viewBox="0 0 74 74" id="aeroplane">
    <path d="M51.46 72a.993.993 0 01-.338-.059L36.99 66.862l-14.133 5.079A1 1 0 0121.52 71v-7.19a1 1 0 01.389-.792l6.952-5.37V46.173L7.4 48.862a.991.991 0 01-.786-.242 1 1 0 01-.338-.75v-8.4a1 1 0 01.485-.857L28.86 25.364V10.13a8.13 8.13 0 0116.26 0v15.234l22.113 13.248a1 1 0 01.486.858v8.4a1 1 0 01-.338.75.986.986 0 01-.786.243l-21.475-2.69v11.476l6.951 5.37a1 1 0 01.389.792V71a1 1 0 01-1 1zm-27.94-7.7v5.277l13.133-4.719a.992.992 0 01.676 0l13.131 4.72V64.3l-6.951-5.37a1 1 0 01-.389-.792V45.04a1 1 0 011.124-.992l21.476 2.689v-6.7L43.606 26.788a1 1 0 01-.486-.858v-15.8a6.13 6.13 0 00-12.26 0v15.8a1 1 0 01-.485.857L8.28 40.036v6.7l21.456-2.689a1 1 0 011.124.992v13.1a1 1 0 01-.389.792z"></path>
  </symbol>
    <symbol xmlns="http://www.w3.org/2000/svg" viewBox="0 0 74 74" id="house">
    <path d="M62.342 70.305H11.658a1 1 0 01-1-1V34.959a1 1 0 012 0v33.346h48.684V34.959a1 1 0 012 0v34.346a1 1 0 01-1 1z"></path>
    <path d="M67.834 39.714a4.167 4.167 0 01-2.73-1.021L37 13.4 8.909 38.682a4.164 4.164 0 01-6.9-3.423 4.134 4.134 0 011.422-2.853l30.825-27.68a4.191 4.191 0 015.476-.011l30.848 27.7a4.165 4.165 0 01.4 5.865 4.165 4.165 0 01-3.146 1.434zM37 10.707L66.429 37.2a2.238 2.238 0 003.04-.226 2.165 2.165 0 00-.214-3.054L38.408 6.214a2.172 2.172 0 00-2.829.011L4.757 33.9a2.165 2.165 0 102.828 3.278zm9.21 59.598H27.79a1 1 0 01-1-1V46.486a2.246 2.246 0 012.243-2.244h15.934a2.246 2.246 0 012.243 2.244v22.819a1 1 0 01-1 1zm-17.42-2h16.42V46.486a.244.244 0 00-.243-.244H29.033a.244.244 0 00-.243.244z"></path>
    <path d="M42.113 59.878a1 1 0 01-1-1V55.67a1 1 0 012 0v3.208a1 1 0 01-1 1zm-30.871-32.14a1 1 0 01-1-1V6.75a1 1 0 011-1h12.364a1 1 0 011 1v8.891a1 1 0 01-2 0V7.75H12.242v18.988a1 1 0 01-1 1z"></path>
  </symbol>
    <symbol xmlns="http://www.w3.org/2000/svg" viewBox="0 0 74 74" id="shield">
    <path d="M37 72a1 1 0 01-.595-.2C17.1 57.525 9.229 44.135 9.229 25.584V14.779a1 1 0 01.3-.718.97.97 0 01.728-.281c10.71.342 19.435-3.5 25.968-11.417A.985.985 0 0137.039 2a1 1 0 01.779.424c4.987 7.1 13.25 10.709 26 11.355a1 1 0 01.949 1v10.805a47.493 47.493 0 01-7.2 26.138C53.28 58.521 46.932 64.9 37.594 71.8A1 1 0 0137 72zM11.229 15.8v9.785c0 17.644 7.471 30.482 25.771 44.169 8.807-6.58 14.815-12.662 18.879-19.1a45.552 45.552 0 006.892-25.071v-9.86C50.5 14.949 42.231 11.4 36.944 4.606 30.31 12.123 21.652 15.883 11.229 15.8z"></path>
    <path d="M31 47.25a1 1 0 01-.707-.293l-6.5-6.5a1 1 0 011.414-1.414L31 44.836l17.793-17.793a1 1 0 011.414 1.414l-18.5 18.5a1 1 0 01-.707.293z"></path>
  </symbol>
</svg>