<svg id="Icons" height="512" viewBox="0 0 74 74" width="512" xmlns="http://www.w3.org/2000/svg"><path d="m57.392 60.762h-43.3a2.182 2.182 0 0 1 -2.18-2.18v-16.548a2.183 2.183 0 0 1 2.143-2.179c5.06-.062 21.913-1.473 26.345-17.022a1.035 1.035 0 0 1 .975-.726l27.668.367a1 1 0 0 1 .953.742c.225.842 5.423 20.743-1.78 31.317a14.306 14.306 0 0 1 -10.707 6.223.987.987 0 0 1 -.117.006zm-15.292-36.646c-5.119 16.19-22.694 17.674-28.024 17.739a.171.171 0 0 0 -.167.179v16.548a.18.18 0 0 0 .18.18h43.245a12.372 12.372 0 0 0 9.226-5.356c5.957-8.744 2.541-25.275 1.68-28.943z"/><path d="m31.9 60.762a1 1 0 0 1 -.291-.043c-12.05-3.661-16.8-18.977-17-19.627a1 1 0 0 1 1.915-.579c.045.149 4.646 14.944 15.664 18.292a1 1 0 0 1 -.29 1.958z"/><path d="m57.393 60.762a1.01 1.01 0 0 1 -.214-.023c-16.484-3.6-28.072-22.131-28.557-22.918a1 1 0 0 1 1.7-1.05c.115.186 11.636 18.6 27.282 22.014a1 1 0 0 1 -.212 1.977z"/><path d="m69.658 50.12a1 1 0 0 1 -.424-.095c-21.926-10.295-28.534-25.88-28.801-26.539a1 1 0 0 1 1.85-.761c.063.154 6.623 15.545 27.8 25.489a1 1 0 0 1 -.425 1.905z"/><path d="m53.6 39.7a1 1 0 0 1 -.44-1.9c8.84-4.323 14.939-14.726 15-14.831a1 1 0 0 1 1.73 1c-.26.449-6.47 11.038-15.852 15.625a1 1 0 0 1 -.438.106z"/><path d="m67.44 24.452a1 1 0 0 1 -1-1v-9.214a1 1 0 0 1 2 0v9.214a1 1 0 0 1 -1 1z"/><path d="m42.611 24.452a1 1 0 0 1 -1-1v-9.214a1 1 0 0 1 2 0v9.214a1 1 0 0 1 -1 1z"/><path d="m12.909 57.214h-1.263a9.657 9.657 0 0 1 -9.646-9.646 4.848 4.848 0 0 1 4.843-4.843h6.066a1 1 0 1 1 0 2h-6.066a2.846 2.846 0 0 0 -2.843 2.843 7.655 7.655 0 0 0 7.646 7.646h1.262a1 1 0 1 1 0 2z"/></svg>