<svg id="Icons" height="512" viewBox="0 0 74 74" width="512" xmlns="http://www.w3.org/2000/svg"><path d="m37 72a1 1 0 0 1 -.595-.2c-19.305-14.275-27.176-27.665-27.176-46.216v-10.805a1 1 0 0 1 .3-.718.97.97 0 0 1 .728-.281c10.71.342 19.435-3.5 25.968-11.417a.985.985 0 0 1 .814-.363 1 1 0 0 1 .779.424c4.987 7.1 13.25 10.709 26 11.355a1 1 0 0 1 .949 1v10.805a47.493 47.493 0 0 1 -7.2 26.138c-4.287 6.799-10.635 13.178-19.973 20.078a1 1 0 0 1 -.594.2zm-25.771-56.2v9.785c0 17.644 7.471 30.482 25.771 44.169 8.807-6.58 14.815-12.662 18.879-19.1a45.552 45.552 0 0 0 6.892-25.071v-9.86c-12.271-.774-20.54-4.323-25.827-11.117-6.634 7.517-15.292 11.277-25.715 11.194z"/><path d="m31 47.25a1 1 0 0 1 -.707-.293l-6.5-6.5a1 1 0 0 1 1.414-1.414l5.793 5.793 17.793-17.793a1 1 0 0 1 1.414 1.414l-18.5 18.5a1 1 0 0 1 -.707.293z"/></svg>